<?xml version="1.0" encoding="utf-8"?>
<!-- Generator: Adobe Illustrator 26.3.1, SVG Export Plug-In . SVG Version: 6.00 Build 0)  -->
<svg version="1.1" id="Capa_1" xmlns="http://www.w3.org/2000/svg" xmlns:xlink="http://www.w3.org/1999/xlink" x="0px" y="0px"
	 viewBox="0 0 368.5 372.14" style="enable-background:new 0 0 368.5 372.14;" xml:space="preserve">
<style type="text/css">
	.st0{fill:#2381B4;}
	.st1{fill:#C64930;}
	.st2{fill:#EF9000;}
</style>
<g id="qjWefG_00000034069349376997616020000008910747886471175078_">
	<g>
		<path class="st0" d="M136.49,253.96c-1.15,4.43-2.05,10.58-4.33,16.16c-8.46,20.73-21.29,38.65-36.93,54.54
			c-6.57,6.68-7.94,6.64-14.51,0c-15.93-16.1-28.81-34.33-37.59-55.31c-10.91-26.09,5.12-54.32,30.16-62.24
			c26.42-8.35,55.09,7.68,61.34,34.29C135.46,244.95,135.72,248.62,136.49,253.96z M119.73,252.06
			c0.01-17.88-14.06-32.12-31.79-32.16c-17.56-0.04-32.16,14.42-32.22,31.93c-0.06,17.57,14.39,32.06,31.98,32.07
			C105.58,283.91,119.72,269.85,119.73,252.06z"/>
		<path class="st1" d="M303.9,63.11c-0.46,1.62-0.65,4.47-2,6.59c-4.6,7.23-9.55,14.24-14.49,21.25c-1.67,2.37-4.01,2.64-5.71,0.16
			c-5.23-7.6-11.01-14.96-15.12-23.14c-3.62-7.2-0.93-14.4,5-19.77c6.07-5.5,13.17-6.77,20.76-3.33
			C299.68,48.19,303.3,54.11,303.9,63.11z M271.71,61.87c-0.03,7.06,6,13.1,12.95,12.97c6.74-0.12,12.62-6.09,12.67-12.84
			c0.05-6.93-6.19-13.14-13.03-12.98C277.48,49.17,271.73,55.04,271.71,61.87z"/>
		<path class="st2" d="M222.18,174.94c-1.33,1.92-2.27,3.27-3.54,5.11c-6.72-4.55-13.35-9.05-20.44-13.86
			c1.09-1.73,2.09-3.32,3.33-5.3C208.46,165.6,215.1,170.12,222.18,174.94z"/>
		<path class="st2" d="M275.14,273.25c-1.45-1.94-2.51-3.35-3.28-4.38c5.15-5.84,10.03-11.38,15.39-17.46
			c0.65,0.21,2.3,0.77,4.72,1.57C288.65,261.7,282.18,267.32,275.14,273.25z"/>
		<path class="st2" d="M194.34,110.73c1,2.02,1.79,3.62,2.09,4.22c-5.3,5.71-10.14,10.93-15.53,16.74
			c-0.53-0.14-2.23-0.61-4.27-1.16C179.45,121.2,185.7,115.28,194.34,110.73z"/>
		<path class="st2" d="M191.24,161.21c-8.91-4.48-14.03-11.09-15.63-21.14c1.97-0.2,3.81-0.39,6.06-0.63
			c1.34,7.95,6.13,13.14,12.97,16.75C193.42,157.98,192.42,159.47,191.24,161.21z"/>
		<path class="st2" d="M225.5,184.83c1.34-1.89,2.37-3.35,3.61-5.09c6.77,4.77,13.33,9.4,20.23,14.27c-1.2,1.78-2.25,3.32-3.5,5.17
			C239.02,194.37,232.46,189.74,225.5,184.83z"/>
		<path class="st2" d="M276.15,214.21c-1.47,1.81-2.6,3.2-3.91,4.81c-6.57-5-12.96-9.87-19.61-14.93c1.16-1.67,2.26-3.25,3.58-5.15
			C262.92,204.07,269.43,209.06,276.15,214.21z"/>
		<path class="st2" d="M293.74,243.69c-2.12,0-3.72,0-4.36,0c-3.27-6.88-6.37-13.38-9.78-20.56c0.28-0.32,1.45-1.67,2.85-3.27
			C289.92,226.02,293.75,233.6,293.74,243.69z"/>
		<path class="st2" d="M235.61,287.9c0.8,1.78,1.53,3.38,2.54,5.64c-7.74,2.97-15.21,5.83-23.23,8.91c-0.84-2.04-1.55-3.76-2.4-5.8
			C220.32,293.68,227.81,290.85,235.61,287.9z"/>
		<path class="st2" d="M206.77,305.03c-8.04,2.41-15.6,4.69-23.8,7.15c-0.63-1.95-1.21-3.74-1.92-5.93
			c7.91-2.38,15.59-4.69,23.56-7.09C205.29,301.04,205.91,302.71,206.77,305.03z"/>
		<path class="st2" d="M150.26,320.34c-0.48-2.55-0.79-4.15-1.16-6.1c7.87-1.93,15.66-3.84,23.79-5.84c0.61,2.04,1.11,3.7,1.78,5.94
			C166.54,316.34,158.64,318.28,150.26,320.34z"/>
		<path class="st2" d="M118.01,327.2c-0.6-2.18-1.03-3.75-1.65-5.99c8.11-1.72,15.95-3.39,23.75-5.04c2.78,5.25,2.61,5.73-2.69,6.88
			C131.14,324.42,124.83,325.75,118.01,327.2z"/>
		<path class="st2" d="M268.32,278.36c-7.68,4.11-14.8,7.91-22.35,11.94c-0.99-2.17-1.79-3.9-2.59-5.66
			c7.2-3.87,14.05-7.55,21.35-11.48C265.64,274.48,266.71,276.04,268.32,278.36z"/>
		<path class="st2" d="M226.95,101.68c0.41,1.87,0.69,3.13,1.07,4.87c-7.91,2.18-15.65,4.31-23.62,6.51
			c-0.6-1.78-1.11-3.27-1.77-5.22C210.74,105.78,218.53,103.81,226.95,101.68z"/>
		<path class="st2" d="M260.01,94.84c-0.8,1.26-1.35,3.32-2.44,3.66c-6.89,2.14-13.9,3.9-21.02,5.82c-1.41-3.04-2.04-4.87,2.21-5.63
			c6.77-1.21,13.41-3.14,20.1-4.77C259.24,94.23,259.63,94.54,260.01,94.84z"/>
		<path class="st2" d="M279.56,93.47c-10,2.99-11.17,2.88-12.74-1.22C270.97,91.74,275.14,88.58,279.56,93.47z"/>
		<path class="st2" d="M108.19,322.39c0.53,2.42,0.9,4.14,1.35,6.17c-2.84,0.53-5.56,1.04-8.27,1.54c-0.15-0.26-0.31-0.53-0.46-0.79
			C103.13,327.13,105.46,324.95,108.19,322.39z"/>
	</g>
</g>
</svg>
