<?xml version="1.0" encoding="utf-8"?>
<!-- Generator: Adobe Illustrator 26.3.1, SVG Export Plug-In . SVG Version: 6.00 Build 0)  -->
<svg version="1.1" id="Capa_1" xmlns="http://www.w3.org/2000/svg" xmlns:xlink="http://www.w3.org/1999/xlink" x="0px" y="0px"
	 viewBox="0 0 368.5 293.62" style="enable-background:new 0 0 368.5 293.62;" xml:space="preserve">
<style type="text/css">
	.st0{fill:none;}
	.st1{fill:#EF9000;}
	.st2{fill:#2381B4;}
	.st3{fill:#C64930;}
</style>
<g>
	<path class="st0" d="M203.39,57.04c-10.82-0.2-21.66-0.25-32.48,0c-6.85,0.16-10.22,3.73-9.35,11.26c17.44,0,34.25,0,51.54,0
		C213.7,59.93,209.65,57.16,203.39,57.04z"/>
	<path class="st1" d="M198.71,40.16c-6.82-0.01-13.63,0-20.45,0c-23.78,0.01-30.34,5.18-35.31,28.62c-0.34,0-0.67,0-1.01,0
		L140.08,240c15.35,0.01,30.69,0,46.04,0c15.31,0,30.62,0,45.93,0l-0.98-171.4C227.59,46.67,219.88,40.19,198.71,40.16z
		 M213.1,68.31c-17.29,0-34.1,0-51.54,0c-0.88-7.53,2.5-11.1,9.35-11.26c10.82-0.25,21.66-0.2,32.48,0
		C209.65,57.16,213.7,59.93,213.1,68.31z"/>
	<path class="st2" d="M86.06,68.84C69.5,69.08,58.8,79.2,58.65,95.52c-0.34,39.19-0.2,78.38-0.07,117.57
		c0.04,10.71,4.94,18.68,14.43,24.17c3.72,2.15,7.16,5.51,9.56,9.11c6.34,9.48,21.38,11.09,26.6,1.11
		c4.04-7.73,9.18-7.51,15.62-7.49c5.1,0.01,10.2,0.01,15.3,0.02l1.86-171.22C123.44,68.77,104.75,68.58,86.06,68.84z"/>
	<path class="st3" d="M313.21,98.64c-0.05-19.44-10.31-29.76-29.55-29.86c-17.33-0.09-34.67-0.02-52.56-0.02
		c-0.01-0.05-0.02-0.1-0.03-0.15l0.98,171.4c9.2,0,18.39,0,27.59,0c-0.51,1.08-1.02,2.17-1.52,3.25
		c5.87,3.64,11.35,9.11,17.71,10.44c7.43,1.56,13.43-3.19,15.94-11.27c0.56-1.8,3.06-3.37,5.01-4.31
		c11.89-5.65,16.58-15.22,16.52-28.04C313.13,172.93,313.3,135.78,313.21,98.64z"/>
</g>
</svg>
