<?xml version="1.0" encoding="utf-8"?>
<!-- Generator: Adobe Illustrator 26.3.1, SVG Export Plug-In . SVG Version: 6.00 Build 0)  -->
<svg version="1.1" id="Capa_1" xmlns="http://www.w3.org/2000/svg" xmlns:xlink="http://www.w3.org/1999/xlink" x="0px" y="0px"
	 viewBox="0 0 248.67 255.61" style="enable-background:new 0 0 248.67 255.61;" xml:space="preserve">
<style type="text/css">
	.st0{fill:none;}
	.st1{fill:#C64930;}
	.st2{fill:#2381B4;}
	.st3{fill:#EF9000;}
	.st4{fill:#ED9000;}
</style>
<g>
	<path class="st0" d="M102.26,187.23l0.52-23.94c-0.48,0.98-0.68,2.3-0.65,4.02C102.23,173.95,102.25,180.59,102.26,187.23z"/>
	<path class="st0" d="M117.34,50.56c-4.12,3.91-8.24,7.83-12.36,11.74l-0.24,11c4.72-4.55,9.44-9.11,14.15-13.68
		c2.88-2.79,4.86-2.93,7.8-0.05c5.71,5.59,11.43,11.17,17.15,16.74l0.06-10.91c-6.95-6.6-13.93-13.23-20.99-19.94
		C120.96,47.25,119.12,48.87,117.34,50.56z"/>
	<path d="M102.21,220.73c0-2.69,0-4.8,0-6.9c0-8.87,0.04-17.73,0.04-26.6l-0.73,33.5C101.76,220.73,101.98,220.73,102.21,220.73z"/>
	<path class="st1" d="M143.51,167.8c-0.25,15.5-0.09,31.01-0.09,46.51c0,2.05,0,4.11,0,6.44c15.26,0,29.57-0.09,43.88,0.05
		c4.71,0.05,5.44-2.5,5.43-6.38c-0.07-28.85,0.02-57.7-0.15-86.55c-0.01-2.25-1.08-5.1-2.66-6.65
		c-15.29-15.04-30.7-29.96-46.07-44.92l-0.45,89.02C143.49,166.07,143.53,166.89,143.51,167.8z"/>
	<path class="st2" d="M56.25,120.18c-1.83,1.79-3.08,5.01-3.16,7.6c-0.34,11.18-0.15,22.37-0.15,33.56c0,17.66,0.01,35.33,0,52.99
		c0,3.03-0.17,6.34,4.12,6.36c14.63,0.09,29.28,0.04,44.47,0.04l0.73-33.5c0-6.64-0.03-13.28-0.13-19.91
		c-0.03-1.73,0.18-3.04,0.65-4.02l1.96-90C88.56,88.9,72.33,104.46,56.25,120.18z"/>
	<path class="st3" d="M118.89,59.62c-4.71,4.57-9.43,9.12-14.15,13.68l-1.96,90c0.89-1.83,2.73-2.5,5.86-2.41
		c9.41,0.26,18.85,0.31,28.26-0.02c4.34-0.15,6.05,1.25,6.5,4.47l0.45-89.02c-5.73-5.57-11.45-11.15-17.15-16.74
		C123.75,56.69,121.77,56.83,118.89,59.62z"/>
	<path class="st1" d="M219.55,120.93c-0.57-0.54-1.12-1.1-1.69-1.64c-24.62-23.39-49.25-46.79-73.88-70.17l-0.08,16.28
		c11.59,11.01,23.07,21.92,34.54,32.81c10.96,10.4,21.93,20.79,32.89,31.19c2.99,2.84,6.24,3.64,9.22,0.32
		C223.3,126.67,222.33,123.59,219.55,120.93z"/>
	<path class="st4" d="M129.07,34.96c-5.05-4.79-7.44-4.79-12.45-0.05c-3.76,3.56-7.51,7.13-11.27,10.69l-0.36,16.7
		c4.12-3.91,8.24-7.83,12.36-11.74c1.78-1.69,3.62-3.31,5.57-5.09c7.06,6.71,14.04,13.34,20.99,19.94l0.08-16.28
		C139.01,44.4,134.04,39.68,129.07,34.96z"/>
	<path class="st2" d="M82.03,67.75c-1.46,1.38-2.99,2.69-5.6,5.03c0-7.03,0-12.41,0-18.04c-9.95,0-19.29,0-29.46,0
		c0,14.3,0.16,28.02-0.15,41.72c-0.06,2.56-1.41,5.63-3.19,7.51c-5.52,5.84-11.52,11.22-17.35,16.76c-2.95,2.81-4.1,5.99-1,9.22
		c3.14,3.26,6.35,2.08,9.24-0.73c0.56-0.55,1.15-1.07,1.72-1.61c22.91-21.77,45.82-43.54,68.74-65.3l0.36-16.7
		C97.57,52.98,89.81,60.37,82.03,67.75z"/>
</g>
</svg>
