<?xml version="1.0" encoding="utf-8"?>
<!-- Generator: Adobe Illustrator 26.3.1, SVG Export Plug-In . SVG Version: 6.00 Build 0)  -->
<svg version="1.1" id="Capa_1" xmlns="http://www.w3.org/2000/svg" xmlns:xlink="http://www.w3.org/1999/xlink" x="0px" y="0px"
	 viewBox="0 0 970 300" style="enable-background:new 0 0 970 300;" xml:space="preserve">
<style type="text/css">
	.st0{fill:#EC8E00;}
	.st1{fill:#2180B2;}
	.st2{fill:#C54830;}
	.st3{fill:#E7DEDE;}
	.st4{fill:#FDFDFC;}
</style>
<rect x="346.39" y="-21.06" class="st0" width="282.62" height="342.64"/>
<rect x="-11.81" y="-21.06" class="st1" width="389.68" height="342.64"/>
<rect x="576.5" y="-16.41" class="st2" width="405.31" height="342.64"/>
<g>
	<path class="st3" d="M239.69,174.53c-11.42,0-19.73-2.35-24.93-7.04c-5.2-4.69-7.8-12.38-7.8-23.05v-42.01h-10.72V82.9h10.72V57.22
		h28.01V82.9h26.97v19.53h-26.97v31.85c0,3.15,0.03,5.9,0.08,8.24c0.05,2.35,0.48,4.46,1.28,6.32c0.75,1.87,2.07,3.35,3.96,4.44
		c1.89,1.09,4.65,1.64,8.28,1.64c1.49,0,3.45-0.32,5.88-0.96c2.43-0.64,4.12-1.23,5.08-1.76h2.4v19.77
		c-3.04,0.8-6.27,1.43-9.68,1.88C248.84,174.3,244.65,174.53,239.69,174.53z"/>
	<path class="st3" d="M333.71,109.39h-2.32c-1.07-0.37-2.61-0.65-4.64-0.84c-2.03-0.19-4.27-0.28-6.72-0.28
		c-2.93,0-6.02,0.43-9.24,1.28c-3.23,0.85-6.36,1.87-9.4,3.04v60.18h-28.01V82.9h28.01v12.88c1.28-1.17,3.05-2.65,5.32-4.44
		c2.27-1.79,4.33-3.21,6.2-4.28c2.03-1.23,4.39-2.28,7.08-3.16c2.69-0.88,5.24-1.32,7.64-1.32c0.91,0,1.92,0.03,3.04,0.08
		c1.12,0.05,2.13,0.13,3.04,0.24V109.39z"/>
	<path class="st3" d="M373.24,70.1h-29.61V48.25h29.61V70.1z M372.44,172.77h-28.01V82.9h28.01V172.77z"/>
	<path class="st3" d="M477.99,82.9l-32.25,89.86h-30.57L383.17,82.9h29.45l18.41,59.46l18.17-59.46H477.99z"/>
	<path class="st3" d="M538.25,163.25c-1.92,1.6-3.64,3.04-5.16,4.32s-3.56,2.56-6.12,3.84c-2.51,1.23-4.95,2.16-7.32,2.8
		c-2.38,0.64-5.7,0.96-9.96,0.96c-7.95,0-14.55-2.67-19.81-8c-5.26-5.33-7.88-12.06-7.88-20.17c0-6.67,1.33-12.06,4-16.16
		c2.67-4.11,6.51-7.36,11.52-9.76c5.07-2.45,11.12-4.16,18.17-5.12s14.62-1.71,22.73-2.24v-0.48c0-4.96-1.83-8.39-5.48-10.28
		c-3.65-1.89-9.14-2.84-16.44-2.84c-3.31,0-7.18,0.6-11.6,1.8c-4.43,1.2-8.75,2.73-12.96,4.6h-2.4V84.82
		c2.77-0.8,7.25-1.75,13.44-2.84c6.19-1.09,12.43-1.64,18.72-1.64c15.47,0,26.74,2.58,33.81,7.72c7.07,5.15,10.6,13,10.6,23.57
		v61.14h-27.85V163.25z M538.25,149.32V130.6c-4.75,0.48-8.59,0.89-11.52,1.24c-2.93,0.35-5.82,1.03-8.64,2.04
		c-2.45,0.85-4.36,2.15-5.72,3.88c-1.36,1.73-2.04,4.04-2.04,6.92c0,4.21,1.13,7.11,3.4,8.68c2.27,1.57,5.61,2.36,10.04,2.36
		c2.45,0,4.96-0.56,7.52-1.68C533.85,152.92,536.17,151.35,538.25,149.32z"/>
	<path class="st3" d="M668.53,162.45c0,8.32-1.2,15.39-3.6,21.21c-2.4,5.81-5.68,10.35-9.84,13.6c-4.16,3.31-9.15,5.69-14.96,7.16
		c-5.82,1.47-12.27,2.2-19.37,2.2c-5.97,0-11.64-0.39-17-1.16c-5.36-0.77-10.02-1.67-13.96-2.68v-22.49h3.28
		c1.39,0.53,3.03,1.12,4.92,1.76c1.89,0.64,3.8,1.23,5.72,1.76c2.29,0.59,4.54,1.07,6.72,1.44c2.19,0.37,4.43,0.56,6.72,0.56
		c4.75,0,8.71-0.49,11.88-1.48c3.17-0.99,5.56-2.39,7.16-4.2c1.6-1.87,2.72-4.07,3.36-6.6s0.96-5.72,0.96-9.56v-1.68
		c-3.15,2.78-6.79,5-10.92,6.68c-4.13,1.68-8.39,2.52-12.76,2.52c-11.63,0-20.61-3.79-26.93-11.36c-6.32-7.58-9.48-19.1-9.48-34.57
		c0-7.04,0.97-13.36,2.92-18.96c1.95-5.6,4.65-10.38,8.12-14.32c3.31-3.79,7.31-6.71,12-8.76c4.69-2.05,9.57-3.08,14.64-3.08
		c4.59,0,8.7,0.59,12.32,1.76c3.63,1.17,6.94,2.75,9.92,4.72l1.04-4h27.13V162.45z M640.52,144.44v-40.73
		c-1.39-0.64-3.09-1.17-5.12-1.6c-2.03-0.43-4.05-0.64-6.08-0.64c-6.72,0-11.78,2.17-15.16,6.52c-3.39,4.35-5.08,10.42-5.08,18.21
		c0,3.89,0.25,7.19,0.76,9.88c0.51,2.69,1.45,5.08,2.84,7.16c1.33,2.03,3.08,3.56,5.24,4.6c2.16,1.04,4.92,1.56,8.28,1.56
		c2.51,0,4.97-0.43,7.4-1.28C636.03,147.27,638.33,146.04,640.52,144.44z"/>
	<path class="st3" d="M776.24,127.88c0,14.78-4.04,26.42-12.12,34.93c-8.08,8.51-19.51,12.76-34.29,12.76
		c-14.67,0-26.07-4.25-34.21-12.76c-8.14-8.51-12.2-20.15-12.2-34.93c0-14.94,4.07-26.63,12.2-35.09
		c8.14-8.46,19.54-12.68,34.21-12.68c14.72,0,26.14,4.26,34.25,12.76C772.19,101.38,776.24,113.05,776.24,127.88z M747.51,128.04
		c0-5.33-0.44-9.78-1.32-13.32c-0.88-3.55-2.09-6.39-3.64-8.52c-1.65-2.24-3.52-3.8-5.6-4.68c-2.08-0.88-4.46-1.32-7.12-1.32
		c-2.51,0-4.77,0.39-6.8,1.16c-2.03,0.77-3.89,2.25-5.6,4.44c-1.6,2.08-2.88,4.94-3.84,8.56c-0.96,3.63-1.44,8.19-1.44,13.68
		c0,5.5,0.45,9.94,1.36,13.32c0.91,3.39,2.08,6.1,3.52,8.12c1.49,2.08,3.36,3.6,5.6,4.56c2.24,0.96,4.72,1.44,7.44,1.44
		c2.24,0,4.52-0.48,6.84-1.44c2.32-0.96,4.17-2.4,5.56-4.32c1.65-2.29,2.91-5.05,3.76-8.28
		C747.08,138.21,747.51,133.75,747.51,128.04z"/>
</g>
<g>
	<path class="st4" d="M210.05,232.49v-42.87h-16.33v-5.75h39.12v5.75h-16.33v42.87H210.05z"/>
	<path class="st4" d="M272.59,189.45c1.85,2.13,3.29,4.78,4.31,7.93c1.02,3.16,1.53,6.76,1.53,10.81c0,3.94-0.5,7.5-1.5,10.68
		c-1,3.18-2.45,5.84-4.34,8c-1.98,2.26-4.29,3.93-6.94,5.01c-2.65,1.08-5.56,1.62-8.73,1.62c-3.29,0-6.25-0.56-8.88-1.67
		s-4.9-2.76-6.79-4.96c-1.87-2.16-3.31-4.81-4.31-7.97c-1-3.16-1.5-6.73-1.5-10.71c0-4.09,0.51-7.68,1.52-10.77s2.45-5.75,4.33-7.97
		c1.87-2.16,4.13-3.79,6.78-4.91c2.64-1.12,5.6-1.68,8.87-1.68c3.31,0,6.29,0.58,8.95,1.73
		C268.52,185.74,270.76,187.36,272.59,189.45z M271.71,208.19c0-3.22-0.35-6.07-1.04-8.55c-0.7-2.48-1.68-4.54-2.94-6.17
		c-1.28-1.68-2.84-2.93-4.65-3.77c-1.82-0.84-3.86-1.26-6.12-1.26c-2.35,0-4.4,0.41-6.15,1.22c-1.75,0.82-3.3,2.08-4.65,3.8
		c-1.28,1.65-2.27,3.73-2.96,6.24c-0.69,2.5-1.03,5.33-1.03,8.49c0,6.38,1.34,11.26,4.02,14.65c2.68,3.38,6.27,5.08,10.77,5.08
		c4.51,0,8.09-1.69,10.76-5.08C270.37,219.45,271.71,214.57,271.71,208.19z"/>
	<path class="st4" d="M304.51,233.5c-2.85,0-5.34-0.38-7.48-1.13c-2.13-0.75-3.95-1.87-5.45-3.35c-1.7-1.7-2.9-3.73-3.59-6.09
		c-0.7-2.36-1.04-5.27-1.04-8.73v-30.33h6.47v30.33c0,2.24,0.14,4.13,0.42,5.67c0.28,1.53,0.84,2.91,1.67,4.13
		c0.87,1.31,2.05,2.3,3.54,2.97c1.49,0.67,3.31,1.01,5.47,1.01c2.02,0,3.82-0.34,5.39-1.01c1.57-0.67,2.79-1.67,3.66-2.97
		c0.81-1.24,1.35-2.61,1.65-4.11s0.44-3.34,0.44-5.52v-30.5h6.47v30.33c0,3.37-0.34,6.27-1.03,8.69c-0.69,2.42-1.89,4.46-3.61,6.14
		c-1.55,1.5-3.35,2.62-5.4,3.36C310.01,233.13,307.49,233.5,304.51,233.5z"/>
	<path class="st4" d="M371.03,232.49h-8.39l-15.41-19.33h-7.38v19.33h-6.46v-48.62h12.54c2.79,0,5.12,0.15,7,0.46
		c1.88,0.3,3.67,1.01,5.37,2.12c1.7,1.09,3.04,2.49,4.03,4.21c0.99,1.72,1.49,3.85,1.49,6.4c0,3.57-0.9,6.55-2.71,8.95
		c-1.81,2.4-4.27,4.17-7.38,5.32L371.03,232.49z M357.06,197.55c0-1.41-0.25-2.67-0.75-3.77c-0.5-1.1-1.27-2-2.32-2.69
		c-0.91-0.61-1.98-1.04-3.2-1.29c-1.22-0.25-2.73-0.38-4.54-0.38h-6.4v18.35h5.68c1.85,0,3.52-0.16,5-0.49
		c1.48-0.33,2.74-1,3.79-2.02c0.94-0.91,1.63-2,2.07-3.26S357.06,199.25,357.06,197.55z"/>
</g>
</svg>
